<svg width="24" height="33" viewBox="0 0 24 33" fill="none" xmlns="http://www.w3.org/2000/svg">
<path d="M4.04303 21.5914C3.8397 21.5914 3.6447 21.6722 3.50092 21.816C3.35714 21.9598 3.27637 22.1548 3.27637 22.3581C3.27637 22.5614 3.35714 22.7564 3.50092 22.9002C3.6447 23.044 3.8397 23.1248 4.04303 23.1248H17.843C18.0464 23.1248 18.2414 23.044 18.3852 22.9002C18.5289 22.7564 18.6097 22.5614 18.6097 22.3581C18.6097 22.1548 18.5289 21.9598 18.3852 21.816C18.2414 21.6722 18.0464 21.5914 17.843 21.5914H4.04303ZM3.27637 25.4248C3.27637 25.2214 3.35714 25.0264 3.50092 24.8826C3.6447 24.7389 3.8397 24.6581 4.04303 24.6581H13.243C13.4464 24.6581 13.6414 24.7389 13.7852 24.8826C13.9289 25.0264 14.0097 25.2214 14.0097 25.4248C14.0097 25.6281 13.9289 25.8231 13.7852 25.9669C13.6414 26.1107 13.4464 26.1914 13.243 26.1914H4.04303C3.8397 26.1914 3.6447 26.1107 3.50092 25.9669C3.35714 25.8231 3.27637 25.6281 3.27637 25.4248Z" fill="#FFB443"/>
<path fill-rule="evenodd" clip-rule="evenodd" d="M8.58406 9.02976C8.52583 8.89008 8.42756 8.77076 8.30163 8.68682C8.17571 8.60289 8.02776 8.55811 7.87643 8.55811C7.72509 8.55811 7.57715 8.60289 7.45122 8.68682C7.32529 8.77076 7.22703 8.89008 7.16879 9.02976L4.29993 15.9144L4.28689 15.9466L3.33546 18.2298C3.25718 18.4174 3.25665 18.6285 3.33401 18.8166C3.41136 19.0046 3.56025 19.1543 3.74793 19.2326C3.9356 19.3108 4.14669 19.3114 4.33475 19.234C4.52281 19.1567 4.67244 19.0078 4.75073 18.8201L5.51279 16.9916H10.2401L11.0021 18.8201C11.0804 19.0078 11.23 19.1567 11.4181 19.234C11.6062 19.3114 11.8173 19.3108 12.0049 19.2326C12.1926 19.1543 12.3415 19.0046 12.4188 18.8166C12.4962 18.6285 12.4957 18.4174 12.4174 18.2298L11.466 15.9466L11.4529 15.9144L8.58406 9.02976ZM7.87643 11.3183L9.60143 15.4583H6.15143L7.87643 11.3183Z" fill="#FFB443"/>
<path d="M15.5423 13.1578C15.7456 13.1578 15.9406 13.2386 16.0844 13.3824C16.2281 13.5262 16.3089 13.7212 16.3089 13.9245V15.4578H17.8423C18.0456 15.4578 18.2406 15.5386 18.3844 15.6824C18.5281 15.8262 18.6089 16.0212 18.6089 16.2245C18.6089 16.4278 18.5281 16.6228 18.3844 16.7666C18.2406 16.9104 18.0456 16.9912 17.8423 16.9912H16.3089V18.5245C16.3089 18.7278 16.2281 18.9228 16.0844 19.0666C15.9406 19.2104 15.7456 19.2912 15.5423 19.2912C15.3389 19.2912 15.1439 19.2104 15.0001 19.0666C14.8564 18.9228 14.7756 18.7278 14.7756 18.5245V16.9912H13.2423C13.0389 16.9912 12.8439 16.9104 12.7001 16.7666C12.5564 16.6228 12.4756 16.4278 12.4756 16.2245C12.4756 16.0212 12.5564 15.8262 12.7001 15.6824C12.8439 15.5386 13.0389 15.4578 13.2423 15.4578H14.7756V13.9245C14.7756 13.7212 14.8564 13.5262 15.0001 13.3824C15.1439 13.2386 15.3389 13.1578 15.5423 13.1578Z" fill="#FFB443"/>
<path fill-rule="evenodd" clip-rule="evenodd" d="M23.21 9.16035L14.9957 0.124634H3.49568C2.62425 0.124634 1.78852 0.470806 1.17232 1.087C0.556133 1.70319 0.209961 2.53892 0.209961 3.41035V29.6961C0.209961 30.5675 0.556133 31.4032 1.17232 32.0194C1.78852 32.6356 2.62425 32.9818 3.49568 32.9818H19.9242C20.7957 32.9818 21.6314 32.6356 22.2476 32.0194C22.8638 31.4032 23.21 30.5675 23.21 29.6961V9.16035ZM14.1742 9.16035C14.1742 9.3782 14.2608 9.58714 14.4148 9.74119C14.5689 9.89523 14.7778 9.98178 14.9957 9.98178H21.5671V29.6961C21.5671 30.1318 21.394 30.5496 21.0859 30.8577C20.7778 31.1658 20.36 31.3389 19.9242 31.3389H3.49568C3.05996 31.3389 2.6421 31.1658 2.334 30.8577C2.0259 30.5496 1.85282 30.1318 1.85282 29.6961V3.41035C1.85282 2.97464 2.0259 2.55677 2.334 2.24867C2.6421 1.94058 3.05996 1.76749 3.49568 1.76749H14.1742V9.16035ZM20.243 8.33892L15.8171 3.47031V8.33892H20.243Z" fill="#FFB443"/>
</svg>
