<svg width="34" height="36" viewBox="0 0 34 36" fill="none" xmlns="http://www.w3.org/2000/svg">
<path d="M14.2319 12.4631H17.5486V22.4134H14.2319V12.4631ZM20.8654 0.854492H10.9151V4.17125H20.8654V0.854492ZM15.8902 32.3637C9.47233 32.3637 4.2816 27.173 4.2816 20.755C4.2816 14.3371 9.47233 9.14638 15.8902 9.14638C22.3082 9.14638 27.4989 14.3371 27.4989 20.755C28.6598 20.755 29.7543 20.9706 30.8157 21.3355V20.755C30.8157 17.2393 29.5885 14.0054 27.5487 11.4515L29.9035 9.09663C29.1573 8.25086 28.411 7.48801 27.5652 6.75832L25.2103 9.14638C22.6399 7.05683 19.406 5.82963 15.8902 5.82963C11.9318 5.82963 8.13545 7.40212 5.33639 10.2012C2.53734 13.0002 0.964844 16.7966 0.964844 20.755C0.964844 24.7135 2.53734 28.5098 5.33639 31.3089C8.13545 34.1079 11.9318 35.6804 15.8902 35.6804C16.8687 35.6804 17.814 35.5809 18.7261 35.3985C18.212 34.4367 17.8471 33.3587 17.6813 32.2144C17.0843 32.2973 16.5038 32.3637 15.8902 32.3637ZM31.3795 25.4648L25.4259 31.4184L22.7891 28.7816L20.8654 30.7053L25.4259 35.6804L33.3032 27.8031L31.3795 25.4648Z" fill="#FFB443"/>
</svg>
