<svg width="20" height="28" viewBox="0 0 20 28" fill="none" xmlns="http://www.w3.org/2000/svg">
<path d="M10.1914 13.2701C9.29156 13.2701 8.42858 12.9126 7.79229 12.2763C7.15601 11.64 6.79855 10.777 6.79855 9.8772C6.79855 8.97736 7.15601 8.11437 7.79229 7.47808C8.42858 6.8418 9.29156 6.48434 10.1914 6.48434C11.0912 6.48434 11.9542 6.8418 12.5905 7.47808C13.2268 8.11437 13.5843 8.97736 13.5843 9.8772C13.5843 10.3228 13.4965 10.7639 13.326 11.1756C13.1555 11.5872 12.9056 11.9613 12.5905 12.2763C12.2755 12.5914 11.9014 12.8413 11.4898 13.0118C11.0782 13.1823 10.637 13.2701 10.1914 13.2701ZM10.1914 0.377197C7.67185 0.377197 5.25549 1.37809 3.47389 3.15968C1.6923 4.94128 0.691406 7.35764 0.691406 9.8772C0.691406 17.0022 10.1914 27.5201 10.1914 27.5201C10.1914 27.5201 19.6914 17.0022 19.6914 9.8772C19.6914 7.35764 18.6905 4.94128 16.9089 3.15968C15.1273 1.37809 12.711 0.377197 10.1914 0.377197Z" fill="black"/>
</svg>
