<svg width="30" height="31" viewBox="0 0 30 31" fill="none" xmlns="http://www.w3.org/2000/svg">
<path fill-rule="evenodd" clip-rule="evenodd" d="M13.2896 2.06375C13.29 2.22861 13.3228 2.39178 13.3862 2.54395C13.4495 2.69613 13.5423 2.83433 13.6591 2.95066C13.7759 3.067 13.9145 3.15919 14.0669 3.22197C14.2193 3.28475 14.3826 3.31689 14.5475 3.31656L15.1532 3.31594C20.268 3.31594 23.6893 3.44963 25.6627 3.56198C26.4021 3.60466 26.9155 4.10176 26.9896 4.74574C27.1339 6.01361 27.2745 7.92547 27.2745 10.5679C27.2745 13.2104 27.1339 15.1222 26.9896 16.3901C26.9161 17.0328 26.4014 17.5318 25.6621 17.5738C23.8481 17.6768 20.8121 17.7985 16.3639 17.8174C16.1991 17.8181 16.036 17.8512 15.8839 17.915C15.7319 17.9787 15.5939 18.0718 15.4778 18.1888C15.3618 18.3059 15.2699 18.4447 15.2074 18.5972C15.145 18.7498 15.1132 18.9132 15.1139 19.078C15.1146 19.2429 15.1478 19.406 15.2115 19.558C15.2753 19.71 15.3683 19.848 15.4854 19.9641C15.6024 20.0802 15.7412 20.1721 15.8938 20.2345C16.0464 20.2969 16.2097 20.3287 16.3746 20.328C20.8636 20.3092 23.9442 20.1862 25.8045 20.0801C27.6699 19.9734 29.2611 18.6239 29.4839 16.6744C29.6402 15.3061 29.7852 13.2989 29.7852 10.5679C29.7852 7.83697 29.6402 5.82971 29.4839 4.46079C29.2611 2.51253 27.6718 1.16244 25.8058 1.05636C23.781 0.940245 20.3113 0.805298 15.1532 0.805298L14.5425 0.805926C14.3776 0.806255 14.2144 0.839051 14.0623 0.902441C13.9101 0.965831 13.7719 1.05857 13.6555 1.17537C13.5392 1.29217 13.447 1.43075 13.3842 1.58317C13.3215 1.7356 13.2893 1.8989 13.2896 2.06375ZM13.1032 5.85042C13.1026 4.51913 12.5732 3.2426 11.6316 2.30147C10.69 1.36034 9.41325 0.831659 8.08196 0.83166C5.30896 0.83166 3.06068 3.07868 3.06068 5.85042C3.06013 6.60031 3.22797 7.34075 3.55181 8.0171C3.87565 8.69346 4.34722 9.28847 4.93173 9.75823C2.9295 9.99486 1.26871 11.4686 0.910947 13.5072C0.64482 15.0224 0.378065 16.9449 0.287682 18.9258C0.237469 20.023 0.941075 20.9808 1.94847 21.3279L2.8818 21.6492L3.24835 28.4242C3.27693 28.9336 3.50022 29.4125 3.87203 29.7619C4.24384 30.1113 4.73572 30.3043 5.24591 30.3012C5.7561 30.2981 6.24556 30.0989 6.61304 29.745C6.98051 29.3911 7.19788 28.9094 7.22018 28.3997L7.4543 22.7997C7.4543 22.28 7.56225 21.8582 8.08196 21.8582C8.60166 21.8582 8.70961 22.28 8.70961 22.7997L8.94499 28.4066C8.96721 28.9032 9.17814 29.3725 9.53472 29.7188C9.8913 30.0651 10.3666 30.2622 10.8636 30.2699C11.3606 30.2776 11.8418 30.0953 12.2089 29.7602C12.5761 29.4251 12.8014 28.9625 12.839 28.4669L13.7723 15.6815L18.2777 14.9722C19.2204 14.8241 20.0985 14.1249 20.2328 13.066C20.3263 12.3304 20.3125 12.2143 20.2585 11.7605L20.2454 11.6462C20.1161 10.5353 19.1557 9.87184 18.1741 9.821C15.9967 9.70802 13.6832 9.64525 11.3803 9.63458C11.9218 9.16392 12.3559 8.58242 12.6531 7.92944C12.9504 7.27647 13.1039 6.56725 13.1032 5.8498" fill="#FFB443"/>
</svg>
