<svg width="25" height="25" viewBox="0 0 25 25" fill="none" xmlns="http://www.w3.org/2000/svg">
<path d="M18.5122 15.9288C16.8615 15.7787 15.9611 18.0297 14.7605 18.63C12.8096 19.6805 9.20801 15.9288 9.20801 15.9288C9.20801 15.9288 5.45631 12.3271 6.35672 10.3763C7.10706 9.17572 9.35808 8.27531 9.20801 6.62457C9.05794 5.12389 5.75645 -0.278552 4.1057 1.22213C0.504075 4.52362 0.203939 5.87423 0.203939 8.57545C0.0538717 13.2275 6.05658 19.0802 6.05658 19.0802C6.65685 19.6805 11.9092 25.0829 16.5613 24.9328C19.2625 24.9328 20.6132 24.6327 23.9147 21.0311C25.4153 19.3803 20.163 16.0788 18.5122 15.9288Z" fill="black"/>
</svg>
