<svg width="28" height="29" viewBox="0 0 28 29" fill="none" xmlns="http://www.w3.org/2000/svg">
<path d="M11.2362 24.3924C11.3712 24.8424 11.5571 25.3095 11.7938 25.7937C12.0305 26.2779 12.2721 26.7108 12.5187 27.0924H2.73125C1.98875 27.0924 1.35335 26.8283 0.82505 26.3C0.29675 25.7717 0.03215 25.1358 0.03125 24.3924V2.79241C0.03125 2.04991 0.29585 1.41451 0.82505 0.886207C1.35425 0.357907 1.98965 0.0933072 2.73125 0.0924072H18.9312C19.6737 0.0924072 20.3096 0.357007 20.8388 0.886207C21.368 1.41541 21.6321 2.05081 21.6312 2.79241V12.3774C21.2262 12.3324 20.7762 12.3099 20.2812 12.3099C19.7862 12.3099 19.3362 12.3324 18.9312 12.3774V2.79241H12.1812V12.2424L8.80625 10.2174L5.43125 12.2424V2.79241H2.73125V24.3924H11.2362ZM20.2812 28.4424C18.4137 28.4424 16.8221 27.7841 15.5063 26.4674C14.1905 25.1507 13.5321 23.559 13.5312 21.6924C13.5303 19.8258 14.1887 18.2342 15.5063 16.9175C16.8239 15.6008 18.4155 14.9424 20.2812 14.9424C22.1469 14.9424 23.739 15.6008 25.0575 16.9175C26.376 18.2342 27.0339 19.8258 27.0312 21.6924C27.0285 23.559 26.3702 25.1511 25.0562 26.4687C23.7422 27.7863 22.1505 28.4442 20.2812 28.4424ZM18.5937 25.0674L23.9937 21.6924L18.5937 18.3174V25.0674ZM11.2362 2.79241H2.73125H18.9312H10.8312H11.2362Z" fill="#FFB443"/>
</svg>
